<?xml version="1.0" encoding="UTF-8" standalone="no"?>
<svg
   id="Layer_1"
   data-name="Layer 1"
   viewBox="0 0 24 24"
   width="64"
   height="64"
   version="1.1"
   sodipodi:docname="arrow-up.svg"
   inkscape:version="1.1 (c68e22c387, 2021-05-23)"
   xmlns:inkscape="http://www.inkscape.org/namespaces/inkscape"
   xmlns:sodipodi="http://sodipodi.sourceforge.net/DTD/sodipodi-0.dtd"
   xmlns="http://www.w3.org/2000/svg"
   xmlns:svg="http://www.w3.org/2000/svg">
  <defs
     id="defs7" />
  <sodipodi:namedview
     id="namedview5"
     pagecolor="#ffffff"
     bordercolor="#999999"
     borderopacity="1"
     inkscape:pageshadow="0"
     inkscape:pageopacity="0"
     inkscape:pagecheckerboard="0"
     showgrid="false"
     inkscape:zoom="13.640625"
     inkscape:cx="17.484536"
     inkscape:cy="32"
     inkscape:window-width="2560"
     inkscape:window-height="1361"
     inkscape:window-x="-9"
     inkscape:window-y="-9"
     inkscape:window-maximized="1"
     inkscape:current-layer="Layer_1" />
  <path
     id="path157"
     style="fill:#ffffff;stroke-width:0.959043"
     d="M 32.550781 1.3925781 A 30.423826 30.753723 0 0 0 2.1269531 32.146484 A 30.423826 30.753723 0 0 0 32.550781 62.900391 A 30.423826 30.753723 0 0 0 40.931641 61.689453 A 16.934708 17.227951 0 0 0 45.160156 62.240234 A 16.934708 17.227951 0 0 0 62.09375 45.011719 A 16.934708 17.227951 0 0 0 61.640625 41.058594 A 30.423826 30.753723 0 0 0 62.974609 32.146484 A 30.423826 30.753723 0 0 0 32.550781 1.3925781 z "
     transform="scale(0.375)" />
  <path
     d="M12.836,.029C9.365-.205,5.962,1.065,3.509,3.521,1.057,5.976-.211,9.378,.029,12.854c.441,6.354,6.053,11.146,13.054,11.146h5.917c2.757,0,5-2.243,5-5v-6.66C24,5.862,19.097,.454,12.836,.029Zm9.164,18.971c0,1.654-1.346,3-3,3h-5.917c-6.034,0-10.686-3.905-11.058-9.285-.201-2.899,.855-5.735,2.898-7.782,1.882-1.884,4.435-2.933,7.091-2.933,.229,0,.457,.007,.687,.023,5.214,.354,9.299,4.886,9.299,10.316v6.66Zm-5.293-9.588c.391,.391,.391,1.024,0,1.414-.391,.391-1.023,.391-1.414,0l-2.293-2.293v8.467c0,.552-.447,1-1,1s-1-.448-1-1V8.634l-2.293,2.293c-.195,.195-.451,.293-.707,.293s-.512-.098-.707-.293c-.391-.391-.391-1.023,0-1.414l2.636-2.636c.556-.555,1.292-.876,2.071-.876s1.578,.282,2.172,.876l2.535,2.536Z"
     id="path2"
     style="fill:#e83f6f;fill-opacity:1" />
</svg>
