<?xml version="1.0" encoding="UTF-8" standalone="no"?>
<svg
   viewBox="0 0 24.009673 24"
   width="23"
   height="23"
   version="1.1"
   id="svg5"
   xmlns="http://www.w3.org/2000/svg"
   xmlns:svg="http://www.w3.org/2000/svg">
  <defs
     id="defs9" />
  <g
     id="_01_align_center"
     data-name="01 align center"
     style="fill:#000000;fill-opacity:1"
     transform="translate(0.00483639,-0.11249989)">
    <path
       d="M 17.5,0.917 A 6.4,6.4 0 0 0 12,4.217 6.4,6.4 0 0 0 6.5,0.917 6.8,6.8 0 0 0 0,7.967 c 0,6.775 10.956,14.6 11.422,14.932 L 12,23.308 12.578,22.899 C 13.044,22.569 24,14.742 24,7.967 A 6.8,6.8 0 0 0 17.5,0.917 Z M 12,20.846 C 8.747,18.416 2,12.446 2,7.967 a 4.8,4.8 0 0 1 4.5,-5.05 4.8,4.8 0 0 1 4.5,5.05 h 2 a 4.8,4.8 0 0 1 4.5,-5.05 4.8,4.8 0 0 1 4.5,5.05 c 0,4.481 -6.747,10.449 -10,12.879 z"
       id="path2"
       style="fill:#000000;fill-opacity:1" />
  </g>
</svg>
