<?xml version="1.0" encoding="UTF-8" standalone="no"?>
<!-- Created with Inkscape (http://www.inkscape.org/) -->

<svg
   width="112.97914mm"
   height="14.139577mm"
   viewBox="0 0 112.97914 14.139577"
   version="1.1"
   id="svg5"
   xmlns="http://www.w3.org/2000/svg"
   xmlns:svg="http://www.w3.org/2000/svg">
  <defs
     id="defs2" />
  <g
     id="layer1"
     transform="translate(-80.19174,-127.58647)">
    <circle
       style="fill:#000000;fill-rule:evenodd;stroke-width:0.169772"
       id="path5082"
       cx="86.445236"
       cy="134.06061"
       r="6.2534962" />
    <text
       xml:space="preserve"
       style="font-style:normal;font-variant:normal;font-weight:normal;font-stretch:normal;font-size:10.5833px;line-height:1.25;font-family:Lexend;-inkscape-font-specification:Lexend;stroke-width:0.264583"
       x="38.322578"
       y="134.4594"
       id="text1838"><tspan
         id="tspan1836"
         style="font-style:normal;font-variant:normal;font-weight:normal;font-stretch:normal;font-family:Lexend;-inkscape-font-specification:Lexend;stroke-width:0.264583"
         x="38.322578"
         y="134.4594" /></text>
    <g
       aria-label="kosmetykowo"
       id="text4306"
       style="font-size:14.1111px;line-height:1.35;font-family:'Borders Divide', 'But Hearts Shall Conquer';-inkscape-font-specification:'Borders Divide, But Hearts Shall Conquer';letter-spacing:2.00819px;stroke-width:0.264583"
       transform="translate(0.92267999,-0.15688263)">
      <path
         d="m 97.128091,138.77849 q -1.100665,0 -1.961443,-0.49389 -0.846666,-0.49389 -1.340554,-1.36878 -0.479778,-0.87489 -0.479778,-1.98966 0,-1.10067 0.479778,-1.94734 0.493888,-0.86077 1.340554,-1.34055 0.860778,-0.49389 1.961443,-0.49389 1.100666,0 1.947332,0.49389 0.860777,0.47978 1.340557,1.34055 0.47978,0.84667 0.47978,1.94734 0,1.11477 -0.47978,1.98966 -0.47978,0.87489 -1.340557,1.36878 -0.846666,0.49389 -1.947332,0.49389 z m 0,-0.70556 q 0.874889,0 1.552221,-0.40922 0.691444,-0.40922 1.072444,-1.11478 0.395114,-0.70555 0.395114,-1.62277 0,-0.889 -0.395114,-1.58045 -0.381,-0.70555 -1.072444,-1.10066 -0.677332,-0.39511 -1.552221,-0.39511 -0.888999,0 -1.580443,0.39511 -0.677333,0.39511 -1.072444,1.10066 -0.380999,0.69145 -0.380999,1.58045 0,0.91722 0.380999,1.62277 0.395111,0.70556 1.072444,1.11478 0.691444,0.40922 1.580443,0.40922 z"
         style="font-weight:200;font-family:Lexend;-inkscape-font-specification:'Lexend Ultra-Light';text-align:center;text-anchor:middle"
         id="path37718" />
      <path
         d="m 106.77037,138.77849 q -0.95955,0 -1.70744,-0.36689 -0.74789,-0.381 -1.143,-0.91722 l 0.53622,-0.46567 q 0.381,0.508 0.98778,0.79022 0.60678,0.26811 1.36878,0.26811 0.42333,0 0.77611,-0.0847 0.35278,-0.0988 0.59266,-0.26812 0.254,-0.16933 0.39512,-0.40922 0.14111,-0.254 0.14111,-0.56444 0,-0.55033 -0.52211,-0.93133 -0.23989,-0.16934 -0.60678,-0.31045 -0.36689,-0.14111 -0.86078,-0.28222 -0.74789,-0.22578 -1.27,-0.42333 -0.52211,-0.19756 -0.83255,-0.49389 -0.22578,-0.23989 -0.33867,-0.508 -0.11289,-0.28222 -0.11289,-0.60678 0,-0.45155 0.18345,-0.81844 0.18344,-0.381 0.52211,-0.66322 0.33866,-0.28223 0.79022,-0.42334 0.45155,-0.15522 1.00189,-0.15522 0.52211,0 1.03011,0.15522 0.508,0.14111 0.94544,0.40922 0.43744,0.26812 0.762,0.62089 l -0.47978,0.52211 q -0.28222,-0.31044 -0.62089,-0.55033 -0.32455,-0.23989 -0.71966,-0.36689 -0.39511,-0.14111 -0.87489,-0.14111 -0.381,0 -0.71967,0.0988 -0.32455,0.0988 -0.56444,0.29633 -0.23989,0.18345 -0.381,0.43745 -0.127,0.23988 -0.127,0.53622 0,0.22578 0.0847,0.40922 0.0847,0.16933 0.26811,0.32456 0.23989,0.19755 0.635,0.33866 0.40922,0.14111 1.00189,0.31045 0.53622,0.14111 0.94544,0.28222 0.40922,0.14111 0.70555,0.33866 0.45156,0.28223 0.66323,0.66323 0.22577,0.381 0.22577,0.87488 0,0.60678 -0.33866,1.07245 -0.33867,0.46566 -0.94545,0.73377 -0.60677,0.26812 -1.397,0.26812 z"
         style="font-weight:200;font-family:Lexend;-inkscape-font-specification:'Lexend Ultra-Light';text-align:center;text-anchor:middle"
         id="path37720" />
      <path
         d="m 113.15298,138.63737 v -7.33777 h 0.67733 l 0.0706,1.778 -0.16934,-0.0282 q 0.127,-0.45156 0.39511,-0.80433 0.28223,-0.35278 0.64911,-0.59267 0.381,-0.254 0.83256,-0.381 0.45155,-0.127 0.95955,-0.127 0.53623,0 0.97367,0.18344 0.45156,0.18345 0.77611,0.66323 0.32456,0.47977 0.508,1.35466 l -0.28222,-0.19755 0.0988,-0.23989 q 0.14111,-0.33867 0.40922,-0.64911 0.26811,-0.32456 0.635,-0.56445 0.36689,-0.254 0.81844,-0.39511 0.46567,-0.15522 0.98778,-0.15522 0.73378,0 1.25589,0.32456 0.52211,0.32455 0.79022,1.00188 0.28222,0.67734 0.28222,1.72156 v 4.44499 h -0.70556 v -4.41677 q 0,-0.81844 -0.21166,-1.34055 -0.19756,-0.53623 -0.60678,-0.79023 -0.39511,-0.26811 -0.98778,-0.26811 -0.55033,0 -1.00188,0.19756 -0.45156,0.18344 -0.77611,0.508 -0.32456,0.32455 -0.508,0.74789 -0.18345,0.40922 -0.18345,0.87489 v 4.48732 h -0.70555 v -4.41677 q 0,-0.81844 -0.21167,-1.34055 -0.19756,-0.53623 -0.60678,-0.79023 -0.40922,-0.26811 -1.00189,-0.26811 -0.53622,0 -0.98777,0.19756 -0.45156,0.18344 -0.77611,0.508 -0.32456,0.32455 -0.508,0.74789 -0.18345,0.40922 -0.18345,0.87489 v 4.48732 z"
         style="font-weight:200;font-family:Lexend;-inkscape-font-specification:'Lexend Ultra-Light';text-align:center;text-anchor:middle"
         id="path37722" />
      <path
         d="m 130.93737,138.77849 q -1.05834,0 -1.89089,-0.47978 -0.81845,-0.47978 -1.28411,-1.34056 -0.46567,-0.86077 -0.46567,-2.00377 0,-0.83256 0.254,-1.524 0.26811,-0.69145 0.73378,-1.19944 0.46566,-0.52212 1.11478,-0.80434 0.66322,-0.28222 1.43933,-0.28222 0.762,0 1.36877,0.254 0.62089,0.254 1.04423,0.73378 0.42333,0.46566 0.635,1.11477 0.21166,0.635 0.18344,1.41111 l -0.0141,0.381 h -6.23711 v -0.64911 h 5.85611 l -0.31045,0.254 v -0.33866 q 0,-0.56445 -0.28222,-1.12889 -0.26811,-0.56444 -0.83255,-0.94544 -0.56445,-0.381 -1.42522,-0.381 -0.80434,0 -1.43934,0.35277 -0.62088,0.35278 -0.98777,1.03011 -0.35278,0.67734 -0.35278,1.67922 0,0.95956 0.35278,1.67923 0.35277,0.70555 1.016,1.10066 0.67733,0.381 1.651,0.381 0.52211,0 1.07244,-0.16933 0.55033,-0.16934 1.24178,-0.73378 l 0.36688,0.52211 q -0.31044,0.29633 -0.73377,0.55033 -0.42334,0.23989 -0.94545,0.39511 -0.52211,0.14112 -1.12888,0.14112 z"
         style="font-weight:200;font-family:Lexend;-inkscape-font-specification:'Lexend Ultra-Light';text-align:center;text-anchor:middle"
         id="path37724" />
      <path
         d="m 138.6182,138.63737 v -9.29921 h 0.70556 v 9.29921 z m -1.76388,-6.68866 v -0.64911 h 4.44499 v 0.64911 z"
         style="font-weight:200;font-family:Lexend;-inkscape-font-specification:'Lexend Ultra-Light';text-align:center;text-anchor:middle"
         id="path37726" />
      <path
         d="m 145.83338,141.88293 1.36878,-3.48544 0.15522,0.84666 -3.69711,-7.94455 h 0.74789 l 2.72344,5.842 q 0.15522,0.31044 0.26811,0.62089 0.127,0.31044 0.26811,0.635 l -0.42333,-0.16934 q 0.0847,-0.19755 0.15522,-0.39511 0.0847,-0.21166 0.16934,-0.40922 l 2.45533,-6.12422 h 0.74789 l -2.921,7.33777 -1.28411,3.24556 z"
         style="font-weight:200;font-family:Lexend;-inkscape-font-specification:'Lexend Ultra-Light';text-align:center;text-anchor:middle"
         id="path37728" />
      <path
         d="m 154.5161,136.21027 v -0.889 l 4.13455,-4.02167 h 0.93134 z m -0.59266,2.4271 v -10.44221 h 0.70555 v 10.44221 z m 5.12233,0 -3.38667,-3.92288 0.47978,-0.52211 3.83822,4.44499 z"
         style="font-weight:200;font-family:Lexend;-inkscape-font-specification:'Lexend Ultra-Light';text-align:center;text-anchor:middle"
         id="path37730" />
      <path
         d="m 166.02102,138.77849 q -1.10067,0 -1.96144,-0.49389 -0.84667,-0.49389 -1.34056,-1.36878 -0.47978,-0.87489 -0.47978,-1.98966 0,-1.10067 0.47978,-1.94734 0.49389,-0.86077 1.34056,-1.34055 0.86077,-0.49389 1.96144,-0.49389 1.10067,0 1.94733,0.49389 0.86078,0.47978 1.34056,1.34055 0.47977,0.84667 0.47977,1.94734 0,1.11477 -0.47977,1.98966 -0.47978,0.87489 -1.34056,1.36878 -0.84666,0.49389 -1.94733,0.49389 z m 0,-0.70556 q 0.87489,0 1.55222,-0.40922 0.69144,-0.40922 1.07244,-1.11478 0.39511,-0.70555 0.39511,-1.62277 0,-0.889 -0.39511,-1.58045 -0.381,-0.70555 -1.07244,-1.10066 -0.67733,-0.39511 -1.55222,-0.39511 -0.889,0 -1.58044,0.39511 -0.67734,0.39511 -1.07245,1.10066 -0.381,0.69145 -0.381,1.58045 0,0.91722 0.381,1.62277 0.39511,0.70556 1.07245,1.11478 0.69144,0.40922 1.58044,0.40922 z"
         style="font-weight:200;font-family:Lexend;-inkscape-font-specification:'Lexend Ultra-Light';text-align:center;text-anchor:middle"
         id="path37732" />
      <path
         d="m 174.67552,138.63737 -2.59644,-7.33777 h 0.81844 l 2.159,6.40644 -0.381,-0.0282 2.34244,-5.27755 h 0.42333 l 2.34245,5.27755 -0.45156,0.0282 2.22955,-6.40644 h 0.77612 l -2.59645,7.33777 h -0.26811 l -2.49766,-5.74321 h 0.508 l -2.49767,5.74321 z"
         style="font-weight:200;font-family:Lexend;-inkscape-font-specification:'Lexend Ultra-Light';text-align:center;text-anchor:middle"
         id="path37734" />
      <path
         d="m 188.48054,138.77849 q -1.10067,0 -1.96145,-0.49389 -0.84666,-0.49389 -1.34055,-1.36878 -0.47978,-0.87489 -0.47978,-1.98966 0,-1.10067 0.47978,-1.94734 0.49389,-0.86077 1.34055,-1.34055 0.86078,-0.49389 1.96145,-0.49389 1.10066,0 1.94733,0.49389 0.86078,0.47978 1.34055,1.34055 0.47978,0.84667 0.47978,1.94734 0,1.11477 -0.47978,1.98966 -0.47977,0.87489 -1.34055,1.36878 -0.84667,0.49389 -1.94733,0.49389 z m 0,-0.70556 q 0.87489,0 1.55222,-0.40922 0.69144,-0.40922 1.07244,-1.11478 0.39511,-0.70555 0.39511,-1.62277 0,-0.889 -0.39511,-1.58045 -0.381,-0.70555 -1.07244,-1.10066 -0.67733,-0.39511 -1.55222,-0.39511 -0.889,0 -1.58045,0.39511 -0.67733,0.39511 -1.07244,1.10066 -0.381,0.69145 -0.381,1.58045 0,0.91722 0.381,1.62277 0.39511,0.70556 1.07244,1.11478 0.69145,0.40922 1.58045,0.40922 z"
         style="font-weight:200;font-family:Lexend;-inkscape-font-specification:'Lexend Ultra-Light';text-align:center;text-anchor:middle"
         id="path37736" />
    </g>
    <text
       xml:space="preserve"
       style="font-size:4.93889px;line-height:1.25;font-family:'Borders Divide', 'But Hearts Shall Conquer';-inkscape-font-specification:'Borders Divide, But Hearts Shall Conquer';stroke-width:0.264583"
       x="88.868736"
       y="145.85707"
       id="text58198"><tspan
         id="tspan58196"
         style="font-style:normal;font-variant:normal;font-weight:normal;font-stretch:normal;font-size:4.93889px;font-family:Arial;-inkscape-font-specification:Arial;stroke-width:0.264583"
         x="88.868736"
         y="145.85707" /></text>
    <path
       d="m 84.369059,137.12306 v -1.05776 l 4.9194,-4.78509 h 1.10812 z m -0.70517,2.88782 v -12.42441 h 0.83949 v 12.42441 z m 6.09468,0 -4.02954,-4.66754 0.57085,-0.62122 4.56681,5.28876 z"
       style="font-size:14.1111px;line-height:1.35;font-family:'Borders Divide', 'But Hearts Shall Conquer';-inkscape-font-specification:'Borders Divide, But Hearts Shall Conquer';letter-spacing:2.00819px;fill:#ffffff;stroke-width:0.314808"
       id="path37716" />
  </g>
</svg>
