<?xml version="1.0" encoding="UTF-8" standalone="no"?>
<!-- Generator: Adobe Illustrator 26.0.1, SVG Export Plug-In . SVG Version: 6.00 Build 0)  -->

<svg
   version="1.1"
   id="Capa_1"
   x="0px"
   y="0px"
   viewBox="0 0 24 24"
   style="enable-background:new 0 0 24 24;"
   xml:space="preserve"
   width="64"
   height="64"
   xmlns="http://www.w3.org/2000/svg"
   xmlns:svg="http://www.w3.org/2000/svg"><defs
   id="defs7" />
<circle
   style="fill:#e83f6f;stroke-width:0.187768"
   id="path952"
   cx="12"
   cy="12"
   r="12" /><path
   d="m 18.099901,10.790746 c -1.176273,0 -2.266759,-0.376143 -3.156525,-1.0151462 v 4.6110552 c 0,2.303053 -1.873568,4.176071 -4.176071,4.176071 -0.889766,0 -1.7151917,-0.280457 -2.3932396,-0.756685 C 7.2973276,17.049904 6.591234,15.799392 6.591234,14.386655 c 0,-2.303053 1.8735678,-4.176621 4.176621,-4.176621 0.191371,0 0.378343,0.01595 0.562565,0.0407 v 0.537269 1.778982 c -0.178173,-0.05554 -0.366245,-0.08799 -0.562565,-0.08799 -1.0514417,0 -1.9071128,0.85567 -1.9071128,1.907663 0,0.732489 0.4157373,1.368743 1.0228459,1.688245 0.2645099,0.139129 0.5653149,0.218867 0.8848169,0.218867 1.027245,0 1.865319,-0.817177 1.903813,-1.835623 l 0.0016,-9.0928832 h 2.268958 c 0,0.1968703 0.01925,0.3887914 0.05334,0.5757632 0.160026,0.8644699 0.673099,1.6063081 1.384141,2.0698883 0.494926,0.3228005 1.085537,0.5114235 1.719042,0.5114235 v 2.2684072 z"
   id="path2"
   style="stroke-width:0.549917;fill:#ffffff;fill-opacity:1" />















</svg>
